<svg  fill="rgba(0,0,0,0.05)" height="26px" width="200px" viewBox="0 0 200 26" preserveAspectRatio="none" xmlns="http://www.w3.org/2000/svg"><path d="M33.77,0C25.09,3.81,14.57,6.5,0,6.5V0ZM200,6.5V0H166.23C174.91,3.81,185.43,6.5,200,6.5ZM133.77,0H100c24,0,35.79,7.64,48.23,15.73a125,125,0,0,0,18,10.27H200c-24,0-35.79-7.64-48.23-15.73A125,125,0,0,0,133.77,0ZM100,0H66.23a125,125,0,0,0-18,10.27C35.79,18.36,24,26,0,26H33.77a125,125,0,0,0,18-10.27C64.21,7.64,76,0,100,0ZM66.23,26h67.54c-8.68-3.81-19.2-6.5-33.77-6.5S74.91,22.19,66.23,26Z"/></svg>