<?xml version="1.0" encoding="UTF-8"?>
<!DOCTYPE svg PUBLIC "-//W3C//DTD SVG 1.1//EN" "http://www.w3.org/Graphics/SVG/1.1/DTD/svg11.dtd">
<!-- Creator: CorelDRAW 2021 (64-Bit) -->
<svg xmlns="http://www.w3.org/2000/svg" xml:space="preserve" width="169.333mm" height="127mm" version="1.1" style="shape-rendering:geometricPrecision; text-rendering:geometricPrecision; image-rendering:optimizeQuality; fill-rule:evenodd; clip-rule:evenodd"
viewBox="0 0 16933.32 12699.98"
 xmlns:xlink="http://www.w3.org/1999/xlink"
 xmlns:xodm="http://www.corel.com/coreldraw/odm/2003">
 <defs>
  <style type="text/css">
   <![CDATA[
    .fil0 {fill:#1b7d07}
   ]]>
  </style>
 </defs>
 <g id="Capa_x0020_1">
  <metadata id="CorelCorpID_0Corel-Layer"/>
  <g id="LOGO_x0020__x0028_1_x0029_.cdr">
   <path class="fil0" d="M16049.18 5120.73c-4.89,-35.99 -11.66,-96.34 -26.69,-130.71l-28.92 -59.66 -37.8 -56.85c-7.87,-9.29 -58.93,-56.46 -77.82,-65.35 -16.36,-7.72 -22.66,-13.47 -35.59,-17.05l-75.6 -22.73c-15.26,-3.28 -84.84,-12.57 -111.2,-11.37 -30.24,1.38 -100.6,8.47 -132.31,15.62l-67.84 24.17c-25.9,13.67 -40.6,23.92 -63.37,44.05 -9.64,8.52 -19.63,17.51 -30.01,26.99 -13.52,15.33 -80.53,115.48 -86.75,139.22 -4.02,15.5 1.03,17.23 -9.98,34.12 -3.73,5.67 -7.04,11.35 -10.02,17.04l-20 71.04 0 -8.53 813.9 0zm-302.43 963.3l-126.76 -5.7 -53.37 -8.51 -53.38 -5.7c-67.96,-10.82 -142.79,-34.99 -204.57,-68.18 -41.32,-22.21 -87.51,-50.91 -125.67,-79.58 -12.59,-9.46 -24.08,-20.81 -34.45,-34.07l-60.06 -71.05 -40.02 -79.57 -28.9 -82.4c-11.74,-40.23 -29.16,-131.33 -33.36,-173.34 -1.33,-13.25 -5.31,-94.4 -4.46,-122.19 1.74,-55.55 13.02,-160.87 26.69,-213.12 11.24,-42.9 48.61,-137.8 72.29,-174.75l65.58 -86.67 60.06 -56.83c48.48,-40.65 138.11,-88.62 195.69,-107.98 37.02,-12.46 135.72,-34.27 173.45,-36.94 13.34,0 25.2,-0.49 35.59,-1.42 10.38,-0.94 18.53,-2.36 24.46,-4.28l6.67 0c8.29,-1.7 -2.14,-2.84 20,-2.84 68.27,0 136.21,-0.24 201.26,14.23 17.05,3.79 33.73,7.57 50.03,11.37 16.31,1.87 33.36,5.67 51.17,11.36 26.36,8.42 69.71,29.5 95.6,36.93 48.84,14.02 139.22,85.08 175.69,125.04 17.54,19.21 34.74,49.24 45.59,73.88 6.66,15.16 12.98,31.24 18.9,48.3l13.33 93.78 0 45.46 -2.59 76.3 -1082.62 -2.41 0 102.3c1.62,4.76 3.88,-0.7 4.45,11.36l8.91 93.76 20 88.09 31.14 85.24c13.17,31.08 44.35,90.14 62.27,122.2 20.59,36.84 65.06,78.54 100.05,99.45l86.75 48.31 111.19 34.09 8.88 5.69 13.36 0c0.09,0.01 21.78,11.36 40.03,11.36 23.71,0 20.42,-1.99 40.02,4.27 14.14,4.52 137.85,-0.73 146.78,-1.42 30.98,-2.4 122.1,-25.77 144.54,-34.11 126.18,-52.9 192.64,-115.55 289.09,-213.11 -61.57,172.28 -105.79,250.84 -253.51,355.19l-48.92 31.26 -20.02 2.84c-5.96,1.37 -28.13,9.36 -37.81,8.52 -0.03,0 -20.02,-5.12 -20.02,2.84 -59.16,12.61 -92.3,17.73 -153.43,19.9l-20.01 0c-18.4,1.67 -6.9,2.85 -35.58,2.85zm-1521.77 -2633.44l-277.99 -36.31 0 -81.74c35.06,3.63 23.45,3.63 58.52,0 26.97,-2.78 41.96,-1.69 63.4,-9.07l29.28 -3.05 175.57 -36.3c18.64,-3.85 7.78,3.54 31.7,-6.06l117.06 -24.21 14.61 0 14.65 -6.06 14.62 0 14.63 -6.05 14.64 0 14.64 -6.06c11.67,-2.33 2.26,5.12 29.25,-6.05l-2.42 57.51 0 45.4c-4.05,11.67 -4.89,-10.28 -4.89,36.32l0 2485.27 270.69 27.25 0 84.74 -95.11 27.24 -14.62 0 -53.67 15.13c-17.78,2.19 0.98,-3.25 -30.47,4.56l-130.47 31.77c-19.56,3.22 -42.36,2.46 -73.15,9.09l-107.31 27.23c-0.09,0 -21.95,-5.47 -21.95,3.03 -30.99,19.24 -13.4,2.52 -51.21,18.16 -0.51,-67.33 -1.04,-134.67 -1.56,-201.99 -10.4,8.84 -252.81,121.13 -283.74,135.41 -34.44,14.7 -173.99,42.38 -221.93,42.38 -65.96,0 -126.82,-4.81 -193.87,-16.67 -1063.38,-188.03 -451.56,-1698.85 468.05,-1302.3 -1409.53,-22.87 -649.29,1931.78 233.05,967.51l0 -2276.08zm-1985.72 1377.36c196.84,-265.24 564.23,-262.84 670.06,-117.09 105.86,145.74 -165.01,305.35 -229.47,161.51 -64.45,-143.81 -235.66,-101.71 -440.59,-44.42zm-163.04 542.04l0 578.76 326.05 33.87 0 98.82 -903.41 0 0 -98.82 292.08 -33.87 0 -1019.18 -292.08 -33.89 0 -64.92 54.33 -2.82 61.14 -11.29c19.29,-1.78 13.55,1.49 31.7,-5.66l56.6 -11.29c18.06,-1.87 13.3,1.76 31.7,-5.66l54.34 -11.28 61.13 -16.94 27.18 -5.65 27.17 -8.46 43.02 -11.3c16.91,-5.22 4.08,-5.65 24.91,-5.65l2.25 -2.81c15.66,0 12.5,-6.12 31.71,-8.49l9.05 0 61.13 -16.91c1.65,221.05 0,442.85 0,663.44zm-1024.51 -252.33c-4.91,-35.97 -11.66,-96.33 -26.68,-130.7l-28.92 -59.66 -37.8 -56.83c-7.88,-9.32 -58.92,-56.48 -77.84,-65.36 -16.37,-7.7 -22.65,-13.47 -35.57,-17.06l-75.61 -22.73c-15.27,-3.27 -84.85,-12.57 -111.19,-11.38 -30.24,1.4 -100.6,8.49 -132.32,15.64l-67.83 24.16c-25.9,13.69 -40.61,23.91 -63.37,44.05 -9.64,8.52 -19.63,17.51 -30.01,27 -13.52,15.32 -80.53,115.47 -86.74,139.22 -4.04,15.49 1,17.21 -10,34.11 -3.71,5.68 -7.05,11.35 -10,17.04l-20.03 71.05 0 -8.55 813.91 0zm-302.44 963.31l-126.75 -5.69 -53.38 -8.52 -53.35 -5.69c-67.97,-10.82 -142.8,-34.97 -204.6,-68.18 -41.32,-22.2 -87.51,-50.92 -125.65,-79.56 -12.59,-9.48 -24.08,-20.84 -34.46,-34.11l-60.05 -71.04 -40.03 -79.57 -28.91 -82.4c-11.72,-40.23 -29.16,-131.32 -33.36,-173.33 -1.31,-13.25 -5.31,-94.41 -4.45,-122.21 1.75,-55.54 13.01,-160.86 26.7,-213.1 11.23,-42.91 48.59,-137.81 72.28,-174.77l65.59 -86.65 60.05 -56.83c48.48,-40.66 138.11,-88.63 195.69,-107.99 37.02,-12.46 135.73,-34.27 173.47,-36.94 13.33,0 25.19,-0.48 35.57,-1.42 10.37,-0.95 18.53,-2.36 24.45,-4.27l6.67 0c8.3,-1.71 -2.14,-2.83 20.02,-2.83 68.26,0 136.18,-0.25 201.26,14.21 17.05,3.8 33.73,7.58 50.04,11.36 16.3,1.89 33.35,5.68 51.13,11.37 26.39,8.42 69.74,29.5 95.63,36.93 48.82,14.03 139.21,85.08 175.68,125.05 17.55,19.21 34.75,49.23 45.59,73.87 6.67,15.15 12.96,31.25 18.91,48.3l13.33 93.78 0 45.47 -2.6 76.31 -1082.61 -2.43 0 102.3c1.62,4.76 3.88,-0.7 4.45,11.36l8.89 93.76 20.02 88.08 31.13 85.26c13.18,31.08 44.35,90.12 62.27,122.19 20.6,36.85 65.07,78.56 100.06,99.46l86.75 48.3 111.18 34.09 8.89 5.69 13.35 0c0.1,0.02 21.78,11.36 40.03,11.36 23.71,0 20.43,-1.98 40.03,4.28 14.13,4.51 137.83,-0.74 146.77,-1.44 31,-2.4 122.1,-25.76 144.54,-34.09 126.18,-52.91 192.65,-115.56 289.1,-213.11 -61.58,172.28 -105.8,250.85 -253.52,355.17l-48.91 31.27 -20.02 2.85c-5.96,1.37 -28.13,9.34 -37.8,8.53 -0.04,-0.01 -20.03,-5.14 -20.03,2.82 -59.15,12.61 -92.31,17.74 -153.44,19.91l-20 0c-18.4,1.66 -6.9,2.84 -35.6,2.84zm206.62 -2724.64c16.02,-14.99 16.02,-93.67 0,-109.29 -76.12,0 -200.97,11.24 -429.3,11.24 -224.33,0 -428.64,-11.24 -512.77,-11.24 -12.02,15.62 -20.02,94.3 -8,109.29 76.1,7.51 144.29,18.51 192.29,29.98 124.22,29.71 158.83,77.91 128.18,134.89l-908.31 1971.87 -961.19 -1944.24c-93.95,-190.05 249.63,-201.1 378.39,-197.59 16.03,-14.98 8.03,-93.66 -3.99,-109.28 -84.13,3.75 -405.91,1.58 -602.18,1.58 -146.46,0 -309,-1.65 -420.39,-8.8 -1769.9,60.61 -1858.3,1091.37 -1404.88,1619.33 -53.57,58.79 -108.76,143.34 -130.9,211.43 -38.43,118.16 -40.63,158.97 -40.63,273.23l11.95 177.16 38.24 141.13 64.51 129.13c14.34,24 29.86,46.03 46.6,66.05 65.73,78.67 141.63,131.07 234.17,174.15 66.02,30.73 72.94,27.04 144.55,42.05 28.68,5.99 58.95,10.01 90.82,12 27.08,4.01 56.95,7.5 89.6,10.5 46.61,4.3 85.42,7.51 132.62,7.51l183.98 -18.01 164.89 -39.03c31.06,-9.73 109.32,-49.09 138.59,-66.06 97.17,-56.35 136.35,-118.98 200.72,-204.19 41.27,-54.64 68.01,-125.63 86.02,-190.67 6.37,-23.03 11.15,-47.54 14.34,-73.56 6.37,-22.03 11.15,-45.04 14.33,-69.06 3.18,-24.02 4.78,-51.06 4.78,-81.08l-14.33 -153.13c-6.38,-30.03 -13.15,-58.05 -20.32,-84.08 -18.11,-65.73 -47.49,-132.57 -87.22,-186.16l-90.79 -117.11c-15.94,-16.02 -33.86,-32.52 -53.78,-49.54 -73.26,-62.62 -179.53,-114.8 -272.39,-141.14 -33.2,-9.42 -116.61,-19.84 -156.52,-24.01 -46.84,-4.91 -88.73,-4.5 -136.2,-4.5 -31.69,0 -15.31,0.76 -33.45,3l-9.55 0c-11.16,2 -23.9,3.5 -38.26,4.51 -34.07,2.38 -67.88,6.25 -103.92,13.5 -94.78,19.06 -103.82,16.42 -201.93,51.05 -19.79,6.99 -38.76,14.87 -57.12,23.7 -432.42,-536.41 -58.07,-1397.59 1232.11,-1310.46 219.83,14.83 198.3,40.46 315.66,262.72l1172.88 2426.95 1148.73 -2367.23c138.69,-285.81 180.28,-314.75 469.37,-348.49zm-4367.37 1663.7c217.56,148.03 494.56,196.3 767.04,61.09 -275.6,-44.09 -490.1,-149 -641.67,-286.12 5.82,-5.52 11.68,-10.41 17.73,-14.78 11.16,-9.99 23.5,-19 37.05,-27.01 13.52,-8.01 27.46,-15.01 41.8,-21 14.35,-6.03 29.48,-12.03 45.42,-18.04 15.9,-5.99 34.24,-9.99 54.93,-12 15.94,-4 33.86,-7.51 53.78,-10.51 19.92,-3.01 42.61,-4.5 68.1,-4.5l2.39 0 7.16 0 4.79 0 7.16 0 109.92 12c9.56,2.01 19.51,4.5 29.86,7.51 10.37,3 21.12,6.5 32.26,10.51 4.78,2 9.98,4 15.54,6.01 5.58,2 10.76,4 15.54,6.01 17.51,6 32.25,12.5 44.19,19.5 11.95,7.01 23.5,15.52 34.66,25.53 14.32,8 27.08,17.52 38.23,28.52 11.14,11.01 19.91,22.54 26.28,34.54l50.18 78.08 40.62 78.07c0,1.98 1.59,6 4.77,12 3.2,6 7.19,12.01 11.95,18.02 0,8 1.21,16.5 3.59,25.52 2.38,9 5.18,18.51 8.37,28.52l21.51 84.07 2.38 24.02 4.78 24.03 0 24.03 7.17 24.01 0 24.02 0 24.03 0 24.03 7.16 21 0 12.02 0 12.01 0 6.02 0 2.97 0 6.02 0 6.01 0 18.02 0 18.01 -4.77 21.01 0 18.04 0 8.99 0 12.02 0 18.01 -2.39 21.02 0 18.01 -14.33 84.07 -26.28 78.09 -35.85 75.07 -38.23 72.05 -57.35 63.06 -69.3 45.03c-14.34,8 -28.68,14.01 -43.01,18.01 -14.33,4.03 -29.47,8.03 -45.41,12.03 -12.74,2.01 -27.87,3.5 -45.4,4.49 -17.52,1.03 -37.43,1.52 -59.73,1.52l0 9 -7.16 0 -2.4 0 -7.17 0 -4.78 0 -7.17 3 -2.38 0 -7.16 0 -4.79 0 -107.52 -8.99 -88.41 -27.03c-14.35,-6.02 -27.88,-12.03 -40.64,-18.02 -12.74,-6.01 -23.1,-13.02 -31.06,-21.03 -11.16,-8 -19.51,-14.51 -25.1,-19.51 -5.56,-5 -9.15,-8.5 -10.73,-10.5 -3.18,-4.01 -6.77,-9.02 -10.76,-15.01 -3.98,-6.01 -9.95,-14.04 -17.92,-24.03l-54.97 -72.07 -43 -78.07 -31.06 -81.07 -21.51 -84.08 -7.17 -24.02 -7.17 -24.02 -7.16 -27.03 0 -27.03 -4.78 -12 0 -15.02 -2.4 -12 0 -12.01 -4.77 -12.02 0 -15.01 0 -12.01 0 -12.02 -7.17 -12.01 0 -15 0 -12 0 -15.04 0 -12 0 -15.03 0 -12 0 -21.02 0 -9.01 0 -5.99 0 -12.02 0 -15.01 4.77 -9.02 9.57 -87.07 19.38 -78.49zm-819.55 1064.5c-97.64,12.18 -189.13,28.94 -287.4,16.22l-38.34 -6.5 -35.91 -3.24c-0.05,-0.01 -14.65,-9.57 -21.57,-9.72l-14.36 3.24c-0.09,-0.02 -13.18,-8.63 -21.55,-9.74l-14.37 0c-24.33,-1.71 -85.92,-36.87 -107.79,-51.89 -12.34,-9.64 -56.14,-57.55 -64.66,-71.39 -27.45,-44.62 -42.19,-126.5 -50.31,-178.43 -8.95,-69.93 -7.17,-79.96 -7.17,-145.99l0 -872.66c-26.23,11.84 -15.9,9.72 -43.1,9.72l-213.17 0c233.43,-112.91 528.48,-428.66 559.9,-604.94l-1.85 465.45c651.22,-298.29 1250.16,322.77 0,106.81l0 872.91c0,49.15 6.81,102.52 21.55,149.25 6.16,19.52 26.36,69.23 38.32,84.35l35.93 32.44 43.11 22.7 62.27 16.22c10.62,5.76 -4.53,6.49 23.96,6.49 184.3,0 197.82,-52.16 327.96,-175.57 -13.45,198.18 -96.38,323.75 -191.45,344.27zm-1471.23 -2634.63l-310.13 -43 0 -96.73 31.01 3.59 31.03 -3.59 36.16 -3.58c8.57,-0.84 15.51,-0.6 20.68,-1.79 5.17,-1.19 9.48,-2.98 12.93,-5.38l31.01 -3.58 31.01 -7.18 15.5 0 20.67 -7.15 15.51 0 15.5 -7.17 62.02 -14.33 64.62 -14.34 62.03 -14.33 62.02 -14.33 15.5 0 15.51 -7.16 15.5 0 15.51 -7.16 15.5 0 15.51 -7.17 15.5 0 15.51 -7.17 0 14.34 0 10.75 -2.6 14.32 0 14.34 0 14.34 0 14.32 0 10.75 0 14.33 0 7.16 0 7.17 -5.15 7.17 0 7.16 0 14.33 0 14.34 0 14.33 0 14.32 0 14.34 0 14.33 0 2509.84 325.61 42.98 0 125.4 -976.85 0 0 -125.4 333.38 -42.98 0 -2470.43zm-3627.06 2519.92c-15.13,15.5 -15.13,96.92 0,113.09 71.89,0 189.83,-11.64 405.52,-11.64 211.9,0 404.89,11.64 484.36,11.64 11.36,-16.17 18.92,-97.59 7.58,-113.09 -71.91,-7.78 -136.32,-19.15 -181.64,-31.04 -117.36,-30.72 -150.04,-80.6 -121.1,-139.58l649.79 -1323.94c415.24,163.55 817.8,469.85 1045.3,979.59l165.09 380.64c14.55,33.58 8.77,76.64 -41.62,96.93 -55.68,22.4 -124.88,31.03 -208.14,42.66 -15.12,15.51 -7.55,96.93 3.8,113.08 79.46,-3.86 383.41,-1.64 568.83,-1.64 170.27,0 363.26,7.76 461.64,11.63 11.34,-16.15 22.71,-101.45 7.56,-113.09 -272.45,-34.89 -286.33,-60.26 -408.67,-314.06l-1188.66 -2465.93 -504.17 1004.79c-439.1,-79.78 -929.8,-25.54 -1160.71,184.99 223.27,-92.46 635.48,-109.95 1061.43,12.89l-602.82 1201.49c-144.93,288.83 -170.28,325.69 -443.37,360.59zm1350.96 -1711.42l222.92 -454.24 354.05 821.47c-105.96,-168.21 -322.36,-292.27 -576.97,-367.23zm1742.29 2037.01l160.61 0 0 1040.55 -160.61 0 0 -1040.55zm9852.71 0l160.6 0 0 1040.55 -160.6 0 0 -1040.55zm-9171.45 628.16l93.02 -6.97c4.33,31.87 14.58,57.96 30.72,78.4 16.13,20.44 41.13,36.89 74.98,49.49 33.83,12.6 72.02,18.82 114.37,18.82 37.66,0 70.81,-4.74 99.62,-14.21 28.82,-9.64 50.34,-22.67 64.39,-39.28 14.07,-16.74 21.18,-34.83 21.18,-54.54 0,-20 -6.78,-37.34 -20.48,-52.32 -13.54,-14.97 -35.93,-27.41 -67,-37.48 -20.13,-6.67 -64.21,-17.05 -132.77,-31.12 -68.38,-14.08 -116.45,-27.27 -143.87,-39.72 -35.59,-15.86 -62.15,-35.72 -79.68,-59.28 -17.35,-23.56 -26.03,-49.94 -26.03,-79.29 0,-32.01 10.59,-62.09 31.94,-89.95 21.34,-28.01 52.59,-49.2 93.55,-63.72 41.14,-14.38 86.61,-21.65 136.77,-21.65 55.36,0 103.94,7.57 146.31,22.82 42.18,15.12 74.62,37.5 97.37,66.99 22.56,29.5 34.87,62.98 36.62,100.33l-94.6 6.07c-5.21,-40.15 -22.39,-70.68 -51.73,-91.14 -29.32,-20.6 -72.53,-30.82 -129.82,-30.82 -59.69,0 -103.08,9.34 -130.51,28.01 -27.25,18.67 -40.96,41.2 -40.96,67.43 0,22.97 9.72,41.8 28.99,56.46 19.08,14.82 68.55,29.93 148.75,45.35 80.17,15.56 135.18,29.05 165.04,40.6 43.38,17.21 75.5,38.83 96.16,64.92 20.64,26.23 30.89,56.47 30.89,90.55 0,33.93 -11.29,65.8 -34.02,95.73 -22.74,29.93 -55.37,53.2 -97.9,69.95 -42.5,16.59 -90.4,24.9 -143.52,24.9 -67.52,0 -124.1,-8.31 -169.58,-25.2 -45.64,-16.74 -81.39,-41.93 -107.42,-75.73 -25.87,-33.63 -39.57,-71.87 -40.78,-114.4zm1330.07 204.52l0 -67.73c-42.18,52.16 -99.28,78.09 -171.48,78.09 -31.75,0 -61.62,-5.18 -89.2,-15.55 -27.61,-10.38 -48.08,-23.56 -61.45,-39.27 -13.54,-15.87 -22.9,-35.13 -28.29,-57.96 -3.66,-15.41 -5.56,-39.71 -5.56,-73.05l0 -285.58 91.48 0 0 255.64c0,40.91 1.9,68.33 5.54,82.54 5.91,20.6 18.05,36.61 36.62,48.47 18.76,11.71 41.82,17.48 69.26,17.48 27.42,0 53.1,-5.92 77.22,-17.92 24.13,-12.01 41.15,-28.46 51.03,-49.06 10.07,-20.74 15.1,-50.84 15.1,-90.11l0 -247.04 91.47 0 0 461.05 -81.74 0zm485.35 -546.56l0 -89.96 91.65 0 0 89.96 -91.65 0zm0 546.56l0 -461.05 91.65 0 0 461.05 -91.65 0zm690.51 -69.96l13.18 69.05c-25.67,4.61 -48.76,6.99 -69.06,6.99 -33.33,0 -59,-4.46 -77.41,-13.5 -18.22,-8.89 -31.06,-20.74 -38.52,-35.42 -7.47,-14.52 -11.29,-45.34 -11.29,-92.17l0 -265.27 -67.17 0 0 -60.77 67.17 0 0 -114.27 91.12 -46.82 0 161.09 91.98 0 0 60.77 -91.98 0 0 269.56c0,22.38 1.56,36.61 4.68,42.97 3.31,6.39 8.5,11.42 15.8,15.28 7.28,3.7 17.7,5.62 31.23,5.62 10.26,0 23.62,-1.03 40.27,-3.11zm718.79 -78.55l94.6 9.94c-14.93,47.28 -42.53,83.88 -82.79,109.96 -40.44,25.93 -91.99,38.97 -154.64,38.97 -78.98,0 -141.64,-20.73 -187.79,-62.24 -46.35,-41.5 -69.43,-99.74 -69.43,-174.72 0,-77.66 23.42,-137.82 70.12,-180.65 46.85,-42.84 107.43,-64.33 182.07,-64.33 72.19,0 131.2,21.05 176.84,62.99 45.82,41.94 68.75,101.07 68.75,177.1 0,4.75 -0.18,11.71 -0.54,20.9l-402.65 0c3.31,50.68 20.12,89.51 50.32,116.32 30.21,26.98 67.71,40.46 112.82,40.46 33.51,0 62.14,-7.55 85.92,-22.67 23.79,-14.97 42.52,-38.98 56.4,-72.03zm-300.42 -126.4l301.46 0c-3.98,-38.69 -15.6,-67.88 -34.54,-87.14 -29.15,-30.09 -66.98,-45.2 -113.33,-45.2 -41.99,0 -77.4,12 -106.05,36.01 -28.64,24 -44.42,56.16 -47.54,96.33zm1505.49 199.76c-30.21,28.76 -63.18,50.24 -98.77,64.47 -35.58,14.38 -74.1,21.49 -115.41,21.49 -76.19,0 -136.77,-21.94 -181.54,-65.95 -36.27,-35.86 -54.33,-76.03 -54.33,-120.33 0,-39.27 14.75,-74.84 44.43,-106.55 29.68,-31.72 73.94,-59.58 132.94,-83.6 -33.49,-32.89 -55.88,-59.72 -66.99,-80.32 -11.28,-20.46 -16.82,-40.31 -16.82,-59.42 0,-38.24 17.52,-71.44 52.58,-99.74 35.06,-28.16 79.33,-42.24 132.44,-42.24 50.84,0 92.51,13.34 124.95,39.88 32.29,26.67 48.42,58.67 48.42,96.03 0,60.45 -46.86,112.18 -140.76,155.01l133.65 145.38c15.27,-25.49 27.25,-54.98 35.57,-88.48l95.11 17.34c-16.31,55.58 -38.18,101.23 -66.13,137.08 34.38,38.83 73.08,71.43 116.47,97.82l-61.44 62.09c-36.98,-20.3 -75.16,-50.24 -114.37,-89.96zm-186.23 -331.65c39.74,-20.02 65.42,-37.51 77.04,-52.62 11.82,-14.97 17.54,-31.56 17.54,-49.95 0,-21.63 -7.98,-39.42 -24.13,-53.05 -16.14,-13.78 -36.1,-20.74 -60.22,-20.74 -24.82,0 -45.28,6.81 -61.79,20.44 -16.49,13.64 -24.64,30.23 -24.64,49.94 0,9.78 2.95,20.15 8.86,31.14 5.89,10.81 14.92,22.22 26.72,34.36l40.62 40.48zm128.78 270l-167.84 -177.53c-49.46,25.19 -82.95,48.61 -100.15,70.09 -17.34,21.64 -26.02,42.98 -26.02,64.03 0,25.78 12.13,52.61 36.1,80.31 24.12,27.87 58.13,41.65 102.22,41.65 27.43,0 55.89,-7.26 85.22,-21.93 29.33,-14.53 52.77,-33.5 70.47,-56.62zm767.51 136.8l286.38 -636.52 106.21 0 305.12 636.52 -112.46 0 -86.97 -192.81 -311.7 0 -81.74 192.81 -104.84 0zm215.05 -261.43l252.88 0 -77.95 -176.21c-23.6,-53.5 -41.3,-97.51 -52.75,-132.05 -9.55,40.91 -22.92,81.36 -40.26,121.68l-81.92 186.58zm809.56 438.08l0 -637.7 83.32 0 0 59.86c19.61,-23.4 41.82,-41.04 66.64,-52.75 24.64,-11.7 54.66,-17.64 89.91,-17.64 46.17,0 86.77,10.23 121.99,30.38 35.41,20.31 61.98,48.91 79.84,85.81 18.06,36.91 27.1,77.36 27.1,121.37 0,47.13 -9.9,89.67 -29.87,127.45 -19.78,37.8 -48.6,66.7 -86.43,86.85 -37.83,20.02 -77.57,30.08 -119.22,30.08 -30.55,0 -57.8,-5.48 -82.09,-16.45 -24.32,-10.95 -44.1,-24.89 -59.72,-41.64l0 224.38 -91.47 0zm82.79 -404.59c0,59.28 14.05,103.16 42.19,131.6 28.11,28.31 62.29,42.53 102.22,42.53 40.61,0 75.49,-14.66 104.47,-44.16 28.99,-29.34 43.57,-74.84 43.57,-136.49 0,-58.83 -14.23,-102.69 -42.52,-132.04 -28.3,-29.19 -62.13,-43.87 -101.36,-43.87 -39.05,0 -73.59,15.57 -103.62,46.69 -30.03,31.12 -44.95,76.47 -44.95,135.74zm1108.45 171.02c-34.02,24.61 -66.65,41.94 -97.9,52.17 -31.41,10.07 -65.08,15.11 -101,15.11 -59.37,0 -104.84,-12.3 -136.78,-37.04 -31.76,-24.75 -47.72,-56.47 -47.72,-94.85 0,-22.67 5.89,-43.28 18.05,-61.94 11.98,-18.68 27.76,-33.64 47.21,-44.9 19.61,-11.27 41.48,-19.87 65.94,-25.65 17.89,-4 44.97,-8 81.23,-11.7 73.94,-7.58 128.43,-16.46 163.33,-26.98 0.34,-10.67 0.51,-17.48 0.51,-20.31 0,-31.85 -8.67,-54.38 -26.03,-67.27 -23.25,-17.79 -58.14,-26.52 -104.15,-26.52 -43.02,0 -74.78,6.36 -95.44,19.26 -20.48,12.89 -35.58,35.7 -45.48,68.45l-89.38 -10.51c8.16,-32.61 21.52,-59.13 40.1,-79.14 18.56,-20.15 45.64,-35.72 80.87,-46.53 35.23,-10.82 76.01,-16.31 122.53,-16.31 46.18,0 83.48,4.74 112.29,13.94 28.83,9.33 50,20.9 63.71,34.97 13.54,14.08 22.91,31.72 28.46,53.21 2.95,13.33 4.51,37.34 4.51,72.02l0 104.19c0,72.75 1.92,118.71 5.9,137.82 3.83,19.27 11.63,37.78 23.09,55.43l-95.64 0c-9.37,-16.16 -15.62,-35.13 -18.21,-56.92zm-7.64 -174.57c-33.33,11.71 -83.15,21.49 -149.44,29.63 -37.68,4.61 -64.39,9.79 -79.84,15.57 -15.61,5.78 -27.77,14.22 -36.11,25.49 -8.5,11.11 -12.83,23.41 -12.83,37.05 0,20.89 9.37,38.24 27.76,52.17 18.4,13.77 45.48,20.74 81.06,20.74 35.24,0 66.64,-6.52 94.06,-19.71 27.44,-13.19 47.74,-31.27 60.59,-54.1 9.87,-17.63 14.75,-43.72 14.75,-78.09l0 -28.75zm493.17 231.49l0 -461.05 82.26 0 0 69.79c21,-32.6 40.44,-54.23 58.31,-64.6 17.71,-10.37 37.34,-15.72 58.68,-15.72 30.89,0 62.12,8.45 94.05,25.2l-31.57 72.63c-22.23,-11.43 -44.62,-17.05 -67.01,-17.05 -20.12,0 -38,5.18 -53.96,15.41 -15.97,10.37 -27.27,24.61 -34.02,42.83 -10.25,27.71 -15.28,58.09 -15.28,91.14l0 241.42 -91.46 0zm807.29 -69.96l13.19 69.05c-25.67,4.61 -48.77,6.99 -69.07,6.99 -33.32,0 -59.01,-4.46 -77.41,-13.5 -18.21,-8.89 -31.06,-20.74 -38.52,-35.42 -7.47,-14.52 -11.29,-45.34 -11.29,-92.17l0 -265.27 -67.17 0 0 -60.77 67.17 0 0 -114.27 91.12 -46.82 0 161.09 91.98 0 0 60.77 -91.98 0 0 269.56c0,22.38 1.56,36.61 4.69,42.97 3.3,6.39 8.5,11.42 15.8,15.28 7.27,3.7 17.69,5.62 31.23,5.62 10.25,0 23.61,-1.03 40.26,-3.11zm-5476.62 809.15l93.03 -6.96c4.34,31.85 14.58,57.93 30.73,78.39 16.13,20.45 41.12,36.9 74.97,49.5 33.83,12.59 72.02,18.81 114.37,18.81 37.66,0 70.81,-4.74 99.62,-14.23 28.81,-9.63 50.33,-22.66 64.39,-39.27 14.07,-16.75 21.17,-34.81 21.17,-54.53 0,-20.01 -6.78,-37.36 -20.47,-52.31 -13.54,-14.98 -35.92,-27.42 -67,-37.5 -20.13,-6.67 -64.2,-17.04 -132.77,-31.12 -68.38,-14.08 -116.45,-27.27 -143.87,-39.71 -35.6,-15.86 -62.15,-35.73 -79.68,-59.28 -17.36,-23.57 -26.03,-49.95 -26.03,-79.3 0,-31.99 10.58,-62.08 31.94,-89.95 21.36,-28.02 52.59,-49.2 93.55,-63.71 41.13,-14.39 86.61,-21.65 136.76,-21.65 55.37,0 103.95,7.56 146.31,22.82 42.18,15.11 74.63,37.49 97.38,66.98 22.55,29.5 34.87,62.98 36.62,100.34l-94.6 6.08c-5.21,-40.17 -22.39,-70.69 -51.73,-91.14 -29.33,-20.6 -72.53,-30.83 -129.82,-30.83 -59.69,0 -103.08,9.33 -130.51,28.01 -27.25,18.67 -40.96,41.19 -40.96,67.43 0,22.96 9.72,41.78 28.99,56.46 19.08,14.82 68.55,29.94 148.74,45.35 80.18,15.55 135.2,29.04 165.05,40.6 43.39,17.2 75.5,38.83 96.15,64.92 20.66,26.23 30.89,56.46 30.89,90.53 0,33.95 -11.28,65.81 -34.01,95.75 -22.74,29.94 -55.38,53.2 -97.89,69.95 -42.51,16.59 -90.42,24.9 -143.54,24.9 -67.51,0 -124.09,-8.31 -169.57,-25.2 -45.64,-16.75 -81.39,-41.93 -107.43,-75.73 -25.86,-33.64 -39.56,-71.87 -40.78,-114.4zm976.2 381.16l0 -637.69 83.3 0 0 59.87c19.62,-23.42 41.82,-41.06 66.64,-52.76 24.65,-11.71 54.67,-17.65 89.91,-17.65 46.17,0 86.77,10.24 122,30.39 35.42,20.31 61.98,48.92 79.84,85.81 18.05,36.9 27.09,77.35 27.09,121.37 0,47.12 -9.9,89.66 -29.87,127.46 -19.77,37.78 -48.59,66.69 -86.42,86.84 -37.84,20 -77.58,30.07 -119.23,30.07 -30.55,0 -57.8,-5.47 -82.09,-16.44 -24.32,-10.96 -44.1,-24.89 -59.71,-41.64l0 224.37 -91.46 0zm82.78 -404.58c0,59.28 14.05,103.14 42.18,131.6 28.11,28.3 62.31,42.54 102.21,42.54 40.62,0 75.5,-14.68 104.49,-44.18 28.98,-29.33 43.56,-74.83 43.56,-136.47 0,-58.84 -14.23,-102.71 -42.52,-132.05 -28.28,-29.19 -62.13,-43.87 -101.36,-43.87 -39.04,0 -73.59,15.56 -103.61,46.67 -30.03,31.14 -44.95,76.48 -44.95,135.76zm1108.44 171.02c-34.02,24.6 -66.65,41.94 -97.89,52.17 -31.42,10.07 -65.09,15.1 -101.02,15.1 -59.35,0 -104.83,-12.28 -136.75,-37.04 -31.76,-24.74 -47.74,-56.46 -47.74,-94.85 0,-22.67 5.91,-43.27 18.05,-61.94 11.98,-18.67 27.76,-33.64 47.21,-44.9 19.62,-11.27 41.48,-19.86 65.94,-25.64 17.89,-4 44.97,-8 81.23,-11.71 73.95,-7.56 128.43,-16.46 163.33,-26.97 0.36,-10.67 0.52,-17.48 0.52,-20.31 0,-31.87 -8.68,-54.39 -26.04,-67.27 -23.25,-17.78 -58.14,-26.54 -104.13,-26.54 -43.04,0 -74.8,6.37 -95.46,19.27 -20.48,12.9 -35.57,35.72 -45.47,68.47l-89.39 -10.52c8.16,-32.61 21.52,-59.13 40.1,-79.13 18.56,-20.15 45.64,-35.73 80.88,-46.56 35.22,-10.8 76.01,-16.3 122.53,-16.3 46.17,0 83.47,4.75 112.29,13.94 28.81,9.35 49.99,20.9 63.7,34.98 13.54,14.08 22.92,31.71 28.47,53.21 2.94,13.33 4.5,37.34 4.5,72.02l0 104.18c0,72.76 1.92,118.71 5.9,137.82 3.82,19.27 11.63,37.79 23.09,55.42l-95.64 0c-9.37,-16.15 -15.61,-35.11 -18.21,-56.9zm-7.64 -174.58c-33.33,11.71 -83.14,21.49 -149.44,29.65 -37.65,4.58 -64.39,9.77 -79.84,15.55 -15.61,5.78 -27.77,14.24 -36.11,25.49 -8.5,11.12 -12.83,23.41 -12.83,37.05 0,20.9 9.37,38.24 27.78,52.17 18.38,13.78 45.46,20.75 81.05,20.75 35.23,0 66.63,-6.53 94.08,-19.71 27.41,-13.19 47.71,-31.28 60.56,-54.1 9.89,-17.63 14.75,-43.71 14.75,-78.1l0 -28.75z"/>
  </g>
  <polygon class="fil0" points="4190.29,8439.17 4418.29,9145.52 5160.53,9144.09 4559.21,9579.21 4789.93,10284.68 4190.29,9847.25 3590.64,10284.68 3821.37,9579.21 3220.05,9144.09 3962.28,9145.52 "/>
  <polygon class="fil0" points="7124.68,8439.17 7352.69,9145.52 8094.92,9144.09 7493.6,9579.21 7724.33,10284.68 7124.68,9847.25 6525.04,10284.68 6755.76,9579.21 6154.44,9144.09 6896.68,9145.52 "/>
  <polygon class="fil0" points="10062.82,8439.17 10290.82,9145.52 11033.06,9144.09 10431.74,9579.21 10662.46,10284.68 10062.82,9847.25 9463.17,10284.68 9693.9,9579.21 9092.58,9144.09 9834.81,9145.52 "/>
  <polygon class="fil0" points="12997.21,8439.17 13225.22,9145.52 13967.45,9144.09 13366.13,9579.21 13596.86,10284.68 12997.21,9847.25 12397.57,10284.68 12628.29,9579.21 12026.97,9144.09 12769.21,9145.52 "/>
  <g id="LOGO_x0020__x0028_1_x0029_.cdr_0">
   <path class="fil0" d="M-20403.65 2229.26l8.81 202.18c-811.12,-79.85 -2894.43,263.15 -6012.7,1095.15 2077.87,-759.22 4114.5,-1263.59 6003.89,-1297.33zm829.2 1086.22c-10.24,10.49 -10.24,65.58 0,76.51 48.66,0 128.46,-7.87 274.4,-7.87 143.4,0 273.99,7.87 327.76,7.87 7.68,-10.93 12.8,-66.02 5.12,-76.51 -48.65,-5.26 -92.23,-12.96 -122.91,-21 -79.41,-20.79 -101.51,-54.53 -81.93,-94.45l439.67 -895.85c280.96,110.69 553.41,317.91 707.35,662.84l111.7 257.56c9.85,22.73 5.94,51.87 -28.17,65.6 -37.66,15.15 -84.5,20.98 -140.83,28.86 -10.24,10.49 -5.12,65.59 2.56,76.51 53.77,-2.61 259.46,-1.1 384.92,-1.1 115.23,0 245.82,5.25 312.37,7.88 7.68,-10.93 15.38,-68.65 5.12,-76.53 -184.34,-23.62 -193.75,-40.78 -276.52,-212.51l-804.35 -1668.64 -341.16 679.95c-138,-25.07 -283.56,-30.55 -415.52,-14.97l568.21 -773.73 -721.38 803.34c-87.5,24.6 -162.62,61.18 -216.72,110.5 41.95,-17.36 93.73,-30.77 152.87,-39.38l-1042.42 1160.87 1077.18 536.01 -732.83 -551.55 849.07 -1156.16c125.58,-0.78 268.77,16.96 414.37,58.94l-407.91 813c-98.07,195.45 -115.23,220.4 -300.02,244.01zm914.14 -1158.04l150.86 -307.39 239.58 555.87c-71.69,-113.82 -218.14,-197.75 -390.44,-248.48zm-1407.84 281.57c73.11,0 132.43,-52.19 132.43,-116.52 0,-64.36 -59.32,-116.53 -132.43,-116.53 -73.14,0 -132.44,52.17 -132.44,116.53 0,64.33 59.3,116.52 132.44,116.52zm1809.98 -1103.11l1827.65 2035.33 -1077.18 536.01 732.84 -551.55 -1483.31 -2019.79zm1337.39 1107.2c73.14,0 132.45,-52.19 132.45,-116.52 0,-64.36 -59.31,-116.53 -132.45,-116.53 -73.11,0 -132.43,52.17 -132.43,116.53 0,64.33 59.32,116.52 132.43,116.52zm349 -213.84l-8.84 202.18c811.15,-79.85 2894.46,263.15 6012.71,1095.15 -2077.85,-759.22 -4114.48,-1263.59 -6003.87,-1297.33zm5629.23 4036.77c-4.89,-35.98 -11.66,-96.33 -26.69,-130.7l-28.91 -59.66 -37.81 -56.85c-7.87,-9.3 -58.92,-56.46 -77.82,-65.35 -16.36,-7.71 -22.66,-13.46 -35.59,-17.05l-75.6 -22.73c-15.26,-3.28 -84.84,-12.57 -111.19,-11.37 -30.25,1.39 -100.61,8.48 -132.32,15.62l-67.84 24.17c-25.9,13.67 -40.6,23.91 -63.37,44.05 -9.64,8.52 -19.63,17.51 -30.01,26.99 -13.51,15.33 -80.53,115.47 -86.74,139.22 -4.04,15.5 1.02,17.22 -9.99,34.12 -3.72,5.67 -7.04,11.35 -10.01,17.04l-20.01 71.04 0 -8.54 813.9 0zm-302.43 963.31l-126.76 -5.69 -53.37 -8.52 -53.37 -5.69c-67.97,-10.83 -142.8,-34.99 -204.59,-68.19 -41.31,-22.22 -87.49,-50.91 -125.66,-79.58 -12.59,-9.46 -24.08,-20.81 -34.46,-34.08l-60.05 -71.04 -40.02 -79.58 -28.9 -82.39c-11.74,-40.23 -29.16,-131.32 -33.35,-173.34 -1.34,-13.24 -5.32,-94.4 -4.47,-122.19 1.74,-55.55 13.02,-160.88 26.69,-213.11 11.24,-42.91 48.61,-137.81 72.29,-174.76l65.59 -86.67 60.05 -56.83c48.47,-40.65 138.11,-88.62 195.69,-107.98 37.02,-12.46 135.72,-34.27 173.46,-36.94 13.33,0 25.19,-0.48 35.57,-1.42 10.39,-0.95 18.54,-2.36 24.47,-4.27l6.67 0c8.29,-1.71 -2.15,-2.85 20,-2.85 68.26,0 136.21,-0.24 201.26,14.23 17.05,3.79 33.73,7.57 50.04,11.36 16.3,1.89 33.35,5.68 51.15,11.37 26.37,8.42 69.72,29.5 95.61,36.93 48.85,14.02 139.22,85.08 175.68,125.04 17.55,19.22 34.75,49.24 45.6,73.88 6.66,15.15 12.98,31.24 18.9,48.3l13.34 93.78 0 45.46 -2.6 76.3 -1082.62 -2.41 0 102.29c1.62,4.77 3.88,-0.69 4.45,11.37l8.91 93.76 20 88.09 31.14 85.24c13.17,31.08 44.35,90.13 62.27,122.2 20.59,36.84 65.06,78.54 100.05,99.45l86.75 48.31 111.19 34.09 8.88 5.69 13.35 0c0.1,0.02 21.79,11.36 40.04,11.36 23.71,0 20.42,-1.99 40.02,4.27 14.14,4.52 137.85,-0.73 146.77,-1.42 31,-2.41 122.1,-25.77 144.55,-34.11 126.17,-52.9 192.64,-115.55 289.09,-213.11 -61.58,172.29 -105.8,250.84 -253.51,355.18l-48.92 31.27 -20.02 2.85c-5.96,1.37 -28.13,9.34 -37.8,8.51 -0.04,0 -20.03,-5.12 -20.03,2.84 -59.16,12.61 -92.3,17.73 -153.43,19.9l-20.01 0c-18.4,1.67 -6.9,2.85 -35.58,2.85zm-1521.76 -2633.44l-278 -36.31 0 -81.74c35.06,3.63 23.45,3.63 58.52,0 26.97,-2.78 41.96,-1.69 63.41,-9.07l29.27 -3.04 175.57 -36.31c18.64,-3.85 7.79,3.53 31.7,-6.06l117.06 -24.21 14.61 0 14.66 -6.06 14.61 0 14.63 -6.04 14.64 0 14.63 -6.06c11.69,-2.34 2.27,5.11 29.26,-6.05l-2.42 57.5 0 45.4c-4.05,11.67 -4.89,-10.28 -4.89,36.32l0 2485.27 270.69 27.24 0 84.74 -95.12 27.25 -14.61 0 -53.67 15.13c-17.78,2.19 0.98,-3.25 -30.47,4.56l-130.47 31.77c-19.56,3.21 -42.36,2.45 -73.15,9.09l-107.31 27.23c-0.09,0 -21.95,-5.47 -21.95,3.03 -30.98,19.24 -13.4,2.52 -51.2,18.16 -0.52,-67.33 -1.06,-134.66 -1.57,-201.99 -10.41,8.84 -252.8,121.13 -283.74,135.41 -34.44,14.71 -173.99,42.37 -221.93,42.37 -65.96,0 -126.82,-4.8 -193.87,-16.66 -1063.38,-188.02 -451.56,-1698.85 468.06,-1302.3 -1409.54,-22.88 -649.3,1931.78 233.05,967.51l0 -2276.08zm-1985.73 1377.36c196.84,-265.24 564.22,-262.84 670.06,-117.08 105.86,145.73 -165.01,305.34 -229.47,161.5 -64.45,-143.81 -235.66,-101.71 -440.59,-44.42zm-163.04 542.04l0 578.76 326.06 33.87 0 98.81 -903.43 0 0 -98.81 292.08 -33.87 0 -1019.18 -292.08 -33.89 0 -64.91 54.34 -2.83 61.14 -11.3c19.29,-1.77 13.55,1.5 31.7,-5.65l56.6 -11.3c18.06,-1.86 13.3,1.77 31.7,-5.65l54.35 -11.29 61.13 -16.93 27.16 -5.65 27.18 -8.46 43.01 -11.3c16.92,-5.22 4.09,-5.65 24.91,-5.65l2.26 -2.81c15.67,0 12.5,-6.11 31.71,-8.49l9.05 0 61.13 -16.92c1.65,221.06 0,442.86 0,663.45zm-1024.5 -252.32c-4.91,-35.99 -11.67,-96.34 -26.7,-130.71l-28.91 -59.66 -37.8 -56.83c-7.88,-9.32 -58.93,-56.48 -77.83,-65.36 -16.38,-7.7 -22.66,-13.47 -35.58,-17.06l-75.61 -22.73c-15.28,-3.27 -84.85,-12.57 -111.19,-11.37 -30.24,1.39 -100.6,8.48 -132.31,15.63l-67.84 24.16c-25.9,13.69 -40.61,23.92 -63.37,44.05 -9.64,8.52 -19.63,17.51 -30.01,26.99 -13.52,15.33 -80.54,115.48 -86.75,139.23 -4.03,15.49 1.02,17.22 -9.99,34.11 -3.72,5.68 -7.05,11.35 -10.01,17.04l-20.02 71.04 0 -8.53 813.92 0zm-302.45 963.3l-126.74 -5.69 -53.39 -8.52 -53.36 -5.69c-67.96,-10.83 -142.79,-34.97 -204.6,-68.19 -41.31,-22.19 -87.5,-50.91 -125.64,-79.55 -12.59,-9.49 -24.08,-20.84 -34.46,-34.11l-60.05 -71.04 -40.03 -79.57 -28.91 -82.4c-11.72,-40.23 -29.16,-131.32 -33.36,-173.33 -1.31,-13.25 -5.31,-94.41 -4.44,-122.2 1.74,-55.55 13,-160.87 26.69,-213.11 11.24,-42.91 48.59,-137.81 72.28,-174.77l65.59 -86.65 60.05 -56.83c48.48,-40.66 138.11,-88.63 195.69,-107.99 37.02,-12.46 135.73,-34.27 173.46,-36.94 13.34,0 25.2,-0.48 35.58,-1.42 10.37,-0.94 18.53,-2.36 24.45,-4.27l6.67 0c8.3,-1.71 -2.14,-2.83 20.02,-2.83 68.26,0 136.19,-0.25 201.25,14.21 17.06,3.79 33.74,7.57 50.04,11.37 16.31,1.88 33.36,5.67 51.14,11.36 26.39,8.42 69.74,29.5 95.63,36.93 48.82,14.03 139.22,85.08 175.68,125.04 17.55,19.22 34.75,49.24 45.59,73.88 6.67,15.15 12.97,31.24 18.91,48.3l13.33 93.78 0 45.46 -2.59 76.32 -1082.62 -2.43 0 102.3c1.62,4.76 3.88,-0.7 4.45,11.36l8.88 93.76 20.03 88.08 31.13 85.25c13.18,31.09 44.35,90.14 62.27,122.2 20.6,36.84 65.07,78.56 100.06,99.45l86.74 48.31 111.19 34.1 8.89 5.68 13.35 0c0.1,0.02 21.77,11.36 40.04,11.36 23.7,0 20.42,-1.99 40.02,4.28 14.13,4.51 137.84,-0.74 146.77,-1.43 31,-2.4 122.1,-25.77 144.54,-34.1 126.18,-52.91 192.65,-115.55 289.1,-213.11 -61.58,172.28 -105.8,250.85 -253.51,355.18l-48.92 31.26 -20.02 2.85c-5.96,1.37 -28.13,9.35 -37.81,8.53 -0.03,-0.01 -20.02,-5.14 -20.02,2.82 -59.16,12.61 -92.31,17.73 -153.44,19.9l-20.01 0c-18.39,1.67 -6.89,2.85 -35.59,2.85zm206.62 -2724.64c16.02,-14.99 16.02,-93.67 0,-109.29 -76.12,0 -200.97,11.24 -429.3,11.24 -224.33,0 -428.64,-11.24 -512.77,-11.24 -12.02,15.62 -20.02,94.3 -8,109.29 76.1,7.51 144.3,18.51 192.29,29.98 124.22,29.72 158.83,77.9 128.19,134.89l-908.32 1971.88 -961.19 -1944.24c-93.95,-190.06 249.63,-201.11 378.39,-197.59 16.03,-14.99 8.03,-93.67 -3.99,-109.29 -84.13,3.75 -405.9,1.58 -602.18,1.58 -146.46,0 -309,-1.65 -420.39,-8.8 -1769.91,60.61 -1858.3,1091.37 -1404.89,1619.33 -53.56,58.79 -108.75,143.34 -130.89,211.43 -38.43,118.16 -40.63,158.97 -40.63,273.23l11.95 177.16 38.23 141.13 64.51 129.13c14.35,24 29.87,46.03 46.61,66.04 65.73,78.68 141.62,131.09 234.17,174.17 66.02,30.72 72.94,27.03 144.56,42.04 28.68,5.99 58.94,10.01 90.81,12 27.08,4 56.95,7.51 89.6,10.51 46.61,4.29 85.43,7.5 132.62,7.5l183.99 -18.01 164.88 -39.03c31.06,-9.73 109.32,-49.09 138.59,-66.06 97.16,-56.35 136.35,-118.98 200.72,-204.19 41.27,-54.64 68.01,-125.62 86.02,-190.67 6.37,-23.03 11.16,-47.53 14.34,-73.56 6.37,-22.03 11.15,-45.04 14.32,-69.06 3.19,-24.02 4.79,-51.05 4.79,-81.08l-14.33 -153.13c-6.38,-30.03 -13.15,-58.05 -20.32,-84.08 -18.11,-65.73 -47.49,-132.57 -87.22,-186.16l-90.8 -117.11c-15.92,-16.02 -33.85,-32.52 -53.77,-49.54 -73.26,-62.63 -179.54,-114.8 -272.39,-141.13 -33.2,-9.43 -116.61,-19.85 -156.52,-24.02 -46.84,-4.91 -88.72,-4.5 -136.21,-4.5 -31.68,0 -15.31,0.76 -33.44,3l-9.55 0c-11.16,2 -23.9,3.5 -38.25,4.51 -34.08,2.38 -67.89,6.25 -103.93,13.5 -94.78,19.05 -103.83,16.42 -201.93,51.05 -19.79,7 -38.76,14.87 -57.12,23.7 -432.42,-536.41 -58.07,-1397.59 1232.11,-1310.46 219.83,14.83 198.3,40.46 315.66,262.72l1172.88 2426.95 1148.73 -2367.23c138.69,-285.81 180.28,-314.75 469.37,-348.49zm-4367.37 1663.7c217.56,148.03 494.56,196.3 767.05,61.08 -275.61,-44.08 -490.11,-148.99 -641.68,-286.1 5.82,-5.53 11.68,-10.42 17.73,-14.78 11.16,-10 23.49,-19.01 37.05,-27.01 13.52,-8.02 27.46,-15.02 41.8,-21.02 14.35,-6.02 29.48,-12.03 45.42,-18.04 15.9,-5.99 34.24,-9.98 54.93,-12 15.94,-3.99 33.87,-7.5 53.78,-10.5 19.92,-3.01 42.61,-4.5 68.1,-4.5l2.39 0 7.16 0 4.79 0 7.16 0 109.92 12c9.55,2.01 19.51,4.5 29.86,7.51 10.37,3 21.13,6.5 32.26,10.5 4.79,2.01 9.98,4.01 15.54,6.01 5.58,2.01 10.76,4.01 15.54,6.01 17.51,6.01 32.25,12.51 44.19,19.51 11.95,7 23.51,15.52 34.66,25.54 14.32,7.99 27.08,17.51 38.23,28.51 11.14,11.01 19.91,22.54 26.28,34.54l50.18 78.08 40.62 78.06c0,1.99 1.58,6.01 4.77,12 3.2,6.01 7.18,12.02 11.95,18.03 0,8 1.21,16.5 3.59,25.52 2.38,9 5.18,18.51 8.37,28.52l21.51 84.07 2.38 24.02 4.78 24.03 0 24.02 7.17 24.02 0 24.02 0 24.03 0 24.02 7.16 21.02 0 12.01 0 12.02 0 6.01 0 2.98 0 6.01 0 6.01 0 18.02 0 18.01 -4.77 21.01 0 18.04 0 8.99 0 12.02 0 18.01 -2.39 21.02 0 18.01 -14.33 84.08 -26.28 78.08 -35.85 75.07 -38.23 72.05 -57.35 63.06 -69.3 45.04c-14.34,7.99 -28.68,14 -43.01,18.01 -14.33,4.02 -29.46,8.01 -45.41,12.02 -12.73,2 -27.87,3.5 -45.4,4.49 -17.52,1.03 -37.43,1.52 -59.73,1.52l0 9 -7.16 0 -2.4 0 -7.17 0 -4.78 0 -7.17 3 -2.39 0 -7.15 0 -4.79 0 -107.52 -8.99 -88.42 -27.03c-14.34,-6.01 -27.88,-12.02 -40.63,-18.01 -12.73,-6.01 -23.09,-13.03 -31.06,-21.04 -11.15,-8 -19.51,-14.51 -25.09,-19.51 -5.57,-5 -9.16,-8.5 -10.74,-10.51 -3.18,-4 -6.77,-9.02 -10.76,-15.01 -3.98,-6.01 -9.95,-14.02 -17.92,-24.02l-54.97 -72.07 -43.01 -78.07 -31.05 -81.07 -21.51 -84.08 -7.17 -24.02 -7.17 -24.02 -7.16 -27.03 0 -27.03 -4.78 -12 0 -15.02 -2.4 -12 0 -12.01 -4.77 -12.02 0 -15 0 -12.02 0 -12.01 -7.17 -12.02 0 -15.01 0 -12 0 -15.03 0 -12 0 -15.03 0 -12 0 -21.02 0 -9.01 0 -5.99 0 -12.02 0 -15.01 4.77 -9.02 9.57 -87.07 19.38 -78.49zm-819.55 1064.5c-97.64,12.17 -189.13,28.94 -287.4,16.22l-38.33 -6.5 -35.92 -3.24c-0.06,-0.01 -14.65,-9.58 -21.57,-9.72l-14.36 3.24c-0.09,-0.02 -13.18,-8.63 -21.55,-9.73l-14.38 0c-24.32,-1.72 -85.91,-36.88 -107.78,-51.91 -12.34,-9.63 -56.14,-57.54 -64.66,-71.37 -27.45,-44.63 -42.19,-126.51 -50.3,-178.44 -8.97,-69.93 -7.18,-79.97 -7.18,-145.99l0 -872.66c-26.23,11.84 -15.9,9.72 -43.1,9.72l-213.17 0c233.43,-112.91 528.48,-428.66 559.9,-604.94l-1.85 465.45c651.22,-298.29 1250.16,322.77 0,106.81l0 872.91c0,49.15 6.81,102.52 21.55,149.25 6.16,19.53 26.36,69.24 38.32,84.35l35.93 32.44 43.11 22.7 62.27 16.22c10.62,5.76 -4.53,6.49 23.95,6.49 184.31,0 197.82,-52.17 327.97,-175.57 -13.45,198.18 -96.37,323.75 -191.45,344.27zm-1471.24 -2634.63l-310.13 -43 0 -96.73 31.02 3.59 31.02 -3.59 36.17 -3.58c8.58,-0.85 15.51,-0.6 20.68,-1.79 5.17,-1.19 9.48,-2.98 12.93,-5.39l31.01 -3.57 31.01 -7.17 15.5 0 20.67 -7.16 15.51 0 15.5 -7.17 62.02 -14.33 64.63 -14.34 62.02 -14.32 62.02 -14.34 15.5 0 15.51 -7.17 15.5 0 15.51 -7.16 15.5 0 15.51 -7.16 15.5 0 15.51 -7.17 0 14.33 0 10.76 -2.6 14.33 0 14.33 0 14.34 0 14.32 0 10.75 0 14.33 0 7.16 0 7.17 -5.15 7.17 0 7.17 0 14.32 0 14.34 0 14.33 0 14.33 0 14.33 0 14.33 0 2509.84 325.61 42.98 0 125.4 -976.85 0 0 -125.4 333.37 -42.98 0 -2470.43 0 0zm-3627.05 2519.92c-15.13,15.5 -15.13,96.92 0,113.09 71.89,0 189.84,-11.65 405.52,-11.65 211.91,0 404.89,11.65 484.36,11.65 11.36,-16.17 18.92,-97.59 7.58,-113.09 -71.91,-7.78 -136.32,-19.15 -181.65,-31.04 -117.35,-30.72 -150.03,-80.6 -121.08,-139.58l649.78 -1323.94c415.24,163.55 817.8,469.85 1045.3,979.59l165.08 380.64c14.56,33.58 8.78,76.64 -41.61,96.94 -55.67,22.4 -124.88,31.02 -208.13,42.65 -15.13,15.51 -7.56,96.93 3.79,113.09 79.46,-3.87 383.4,-1.65 568.83,-1.65 170.28,0 363.26,7.75 461.64,11.63 11.35,-16.15 22.71,-101.45 7.56,-113.09 -272.44,-34.89 -286.34,-60.26 -408.67,-314.07l-1188.66 -2465.92 -504.17 1004.79c-439.1,-79.78 -929.8,-25.54 -1160.71,184.99 223.27,-92.46 635.48,-109.94 1061.43,12.89l-602.82 1201.49c-144.93,288.82 -170.28,325.69 -443.37,360.59zm1350.96 -1711.42l222.92 -454.24 354.05 821.47c-105.96,-168.21 -322.36,-292.27 -576.97,-367.23zm1742.29 2037.01l160.6 0 0 1040.55 -160.6 0 0 -1040.55zm9852.71 0l160.6 0 0 1040.55 -160.6 0 0 -1040.55zm-9171.45 628.16l93.02 -6.96c4.33,31.86 14.58,57.94 30.73,78.39 16.12,20.45 41.12,36.9 74.96,49.49 33.85,12.6 72.03,18.83 114.38,18.83 37.66,0 70.82,-4.75 99.62,-14.22 28.82,-9.64 50.34,-22.67 64.39,-39.28 14.07,-16.74 21.18,-34.82 21.18,-54.54 0,-20 -6.78,-37.34 -20.48,-52.32 -13.54,-14.97 -35.93,-27.4 -67,-37.48 -20.13,-6.67 -64.21,-17.05 -132.77,-31.12 -68.38,-14.08 -116.45,-27.28 -143.87,-39.72 -35.59,-15.86 -62.15,-35.72 -79.68,-59.28 -17.35,-23.56 -26.02,-49.94 -26.02,-79.29 0,-32.01 10.58,-62.09 31.93,-89.96 21.35,-28 52.59,-49.2 93.55,-63.71 41.14,-14.38 86.61,-21.65 136.77,-21.65 55.36,0 103.94,7.57 146.3,22.82 42.19,15.12 74.63,37.5 97.38,66.99 22.55,29.5 34.87,62.99 36.62,100.33l-94.6 6.08c-5.21,-40.16 -22.39,-70.69 -51.73,-91.15 -29.32,-20.59 -72.53,-30.82 -129.82,-30.82 -59.69,0 -103.08,9.34 -130.51,28.01 -27.25,18.67 -40.96,41.2 -40.96,67.43 0,22.97 9.72,41.8 28.99,56.46 19.08,14.83 68.55,29.93 148.75,45.35 80.17,15.56 135.19,29.05 165.04,40.6 43.39,17.2 75.5,38.83 96.16,64.92 20.64,26.23 30.88,56.47 30.88,90.54 0,33.94 -11.28,65.81 -34.01,95.74 -22.75,29.94 -55.36,53.2 -97.9,69.95 -42.5,16.59 -90.41,24.9 -143.52,24.9 -67.51,0 -124.1,-8.31 -169.58,-25.2 -45.64,-16.75 -81.39,-41.92 -107.43,-75.73 -25.86,-33.64 -39.56,-71.87 -40.77,-114.4zm1330.07 204.52l0 -67.74c-42.18,52.17 -99.28,78.11 -171.48,78.11 -31.76,0 -61.62,-5.19 -89.2,-15.56 -27.61,-10.38 -48.08,-23.56 -61.44,-39.28 -13.55,-15.86 -22.92,-35.12 -28.3,-57.95 -3.65,-15.4 -5.56,-39.71 -5.56,-73.05l0 -285.58 91.48 0 0 255.64c0,40.91 1.9,68.32 5.54,82.54 5.91,20.6 18.05,36.61 36.62,48.47 18.76,11.71 41.82,17.48 69.26,17.48 27.42,0 53.1,-5.92 77.22,-17.93 24.13,-12.01 41.15,-28.45 51.03,-49.05 10.07,-20.74 15.1,-50.84 15.1,-90.11l0 -247.04 91.47 0 0 461.05 -81.74 0zm485.35 -546.56l0 -89.96 91.66 0 0 89.96 -91.66 0zm0 546.56l0 -461.05 91.66 0 0 461.05 -91.66 0zm690.51 -69.96l13.19 69.06c-25.67,4.6 -48.77,6.97 -69.08,6.97 -33.33,0 -59,-4.45 -77.4,-13.49 -18.22,-8.89 -31.07,-20.74 -38.52,-35.42 -7.47,-14.53 -11.29,-45.35 -11.29,-92.17l0 -265.27 -67.17 0 0 -60.77 67.17 0 0 -114.27 91.12 -46.82 0 161.09 91.98 0 0 60.77 -91.98 0 0 269.56c0,22.38 1.56,36.61 4.68,42.98 3.3,6.37 8.5,11.41 15.8,15.27 7.28,3.7 17.7,5.62 31.23,5.62 10.26,0 23.62,-1.03 40.27,-3.11zm718.79 -78.55l94.6 9.94c-14.93,47.28 -42.52,83.88 -82.79,109.96 -40.44,25.93 -91.99,38.98 -154.64,38.98 -78.98,0 -141.64,-20.75 -187.79,-62.25 -46.35,-41.5 -69.43,-99.74 -69.43,-174.72 0,-77.66 23.43,-137.83 70.12,-180.65 46.85,-42.84 107.43,-64.33 182.06,-64.33 72.2,0 131.21,21.04 176.85,62.99 45.82,41.94 68.75,101.07 68.75,177.1 0,4.74 -0.18,11.71 -0.54,20.9l-402.65 0c3.31,50.68 20.13,89.51 50.32,116.32 30.21,26.98 67.7,40.46 112.82,40.46 33.5,0 62.14,-7.55 85.92,-22.68 23.79,-14.96 42.52,-38.97 56.4,-72.02zm-300.42 -126.4l301.46 0c-3.98,-38.69 -15.61,-67.88 -34.54,-87.14 -29.15,-30.09 -66.98,-45.2 -113.33,-45.2 -41.99,0 -77.4,12 -106.04,36.01 -28.64,24 -44.44,56.17 -47.55,96.33zm1505.49 199.77c-30.21,28.75 -63.18,50.24 -98.77,64.46 -35.58,14.38 -74.11,21.49 -115.4,21.49 -76.21,0 -136.78,-21.94 -181.55,-65.95 -36.27,-35.86 -54.33,-76.02 -54.33,-120.33 0,-39.28 14.75,-74.84 44.43,-106.55 29.68,-31.72 73.94,-59.58 132.95,-83.59 -33.5,-32.9 -55.89,-59.73 -67,-80.32 -11.28,-20.47 -16.83,-40.32 -16.83,-59.43 0,-38.24 17.53,-71.43 52.59,-99.74 35.06,-28.16 79.33,-42.24 132.43,-42.24 50.85,0 92.52,13.34 124.96,39.88 32.29,26.67 48.42,58.67 48.42,96.02 0,60.46 -46.86,112.19 -140.76,155.02l133.65 145.38c15.27,-25.49 27.25,-54.98 35.57,-88.48l95.11 17.34c-16.31,55.58 -38.18,101.23 -66.13,137.09 34.38,38.82 73.08,71.42 116.47,97.81l-61.44 62.09c-36.98,-20.3 -75.16,-50.24 -114.37,-89.95zm-186.23 -331.67c39.74,-20 65.42,-37.49 77.04,-52.61 11.82,-14.97 17.54,-31.57 17.54,-49.95 0,-21.63 -7.98,-39.42 -24.13,-53.05 -16.14,-13.78 -36.1,-20.74 -60.22,-20.74 -24.81,0 -45.28,6.81 -61.79,20.44 -16.49,13.64 -24.64,30.23 -24.64,49.94 0,9.78 2.94,20.15 8.86,31.13 5.89,10.82 14.92,22.23 26.72,34.38l40.62 40.46zm128.78 270.01l-167.84 -177.53c-49.46,25.2 -82.95,48.61 -100.15,70.09 -17.35,21.64 -26.02,42.98 -26.02,64.03 0,25.79 12.14,52.61 36.1,80.31 24.12,27.87 58.13,41.65 102.22,41.65 27.43,0 55.89,-7.26 85.22,-21.93 29.33,-14.53 52.77,-33.49 70.47,-56.62zm767.51 136.8l286.38 -636.52 106.21 0 305.12 636.52 -112.46 0 -86.97 -192.81 -311.7 0 -81.74 192.81 -104.84 0zm215.05 -261.43l252.87 0 -77.94 -176.21c-23.6,-53.5 -41.3,-97.51 -52.74,-132.04 -9.56,40.9 -22.93,81.36 -40.27,121.67l-81.92 186.58zm809.57 438.08l0 -637.7 83.31 0 0 59.87c19.61,-23.41 41.82,-41.05 66.64,-52.76 24.64,-11.7 54.66,-17.64 89.91,-17.64 46.17,0 86.77,10.23 121.99,30.38 35.42,20.31 61.98,48.91 79.84,85.81 18.06,36.91 27.1,77.36 27.1,121.37 0,47.13 -9.9,89.67 -29.87,127.46 -19.78,37.79 -48.6,66.69 -86.43,86.85 -37.83,20 -77.57,30.08 -119.22,30.08 -30.55,0 -57.8,-5.49 -82.1,-16.45 -24.31,-10.96 -44.09,-24.9 -59.71,-41.65l0 224.38 -91.46 0zm82.78 -404.59c0,59.28 14.05,103.15 42.18,131.6 28.11,28.3 62.3,42.53 102.22,42.53 40.62,0 75.5,-14.66 104.48,-44.16 28.99,-29.34 43.57,-74.84 43.57,-136.48 0,-58.84 -14.24,-102.71 -42.52,-132.05 -28.29,-29.19 -62.13,-43.87 -101.36,-43.87 -39.05,0 -73.59,15.56 -103.62,46.69 -30.03,31.12 -44.95,76.47 -44.95,135.74zm1108.45 171.02c-34.03,24.61 -66.65,41.94 -97.9,52.17 -31.41,10.07 -65.09,15.12 -101,15.12 -59.37,0 -104.84,-12.3 -136.78,-37.05 -31.75,-24.75 -47.72,-56.47 -47.72,-94.85 0,-22.67 5.89,-43.28 18.05,-61.94 11.97,-18.68 27.76,-33.64 47.2,-44.91 19.61,-11.26 41.48,-19.86 65.95,-25.64 17.88,-4 44.96,-8 81.24,-11.7 73.93,-7.57 128.42,-16.46 163.32,-26.98 0.35,-10.67 0.51,-17.48 0.51,-20.31 0,-31.85 -8.67,-54.38 -26.03,-67.27 -23.26,-17.79 -58.14,-26.53 -104.15,-26.53 -43.02,0 -74.78,6.37 -95.44,19.27 -20.47,12.89 -35.58,35.7 -45.48,68.45l-89.38 -10.51c8.16,-32.61 21.52,-59.13 40.1,-79.14 18.57,-20.15 45.63,-35.72 80.87,-46.53 35.24,-10.82 76.01,-16.31 122.53,-16.31 46.18,0 83.48,4.74 112.29,13.93 28.83,9.34 50,20.91 63.71,34.98 13.53,14.08 22.91,31.72 28.46,53.21 2.95,13.33 4.51,37.34 4.51,72.02l0 104.19c0,72.75 1.92,118.7 5.91,137.81 3.82,19.28 11.62,37.79 23.08,55.44l-95.64 0c-9.37,-16.16 -15.62,-35.13 -18.21,-56.92zm-7.64 -174.57c-33.33,11.71 -83.15,21.49 -149.44,29.63 -37.67,4.6 -64.39,9.78 -79.84,15.57 -15.61,5.78 -27.76,14.22 -36.11,25.49 -8.5,11.11 -12.83,23.41 -12.83,37.04 0,20.9 9.37,38.24 27.76,52.17 18.4,13.78 45.48,20.75 81.06,20.75 35.24,0 66.64,-6.53 94.06,-19.71 27.44,-13.19 47.74,-31.27 60.59,-54.09 9.88,-17.64 14.75,-43.72 14.75,-78.1l0 -28.75zm493.17 231.49l0 -461.05 82.26 0 0 69.79c21,-32.6 40.44,-54.23 58.31,-64.6 17.71,-10.37 37.34,-15.72 58.68,-15.72 30.88,0 62.12,8.45 94.05,25.2l-31.57 72.62c-22.23,-11.42 -44.62,-17.04 -67.01,-17.04 -20.12,0 -38,5.18 -53.96,15.4 -15.97,10.37 -27.27,24.61 -34.02,42.84 -10.25,27.71 -15.28,58.09 -15.28,91.14l0 241.42 -91.46 0zm807.29 -69.96l13.19 69.06c-25.67,4.6 -48.77,6.97 -69.07,6.97 -33.32,0 -59,-4.45 -77.41,-13.49 -18.21,-8.89 -31.06,-20.74 -38.52,-35.42 -7.47,-14.53 -11.29,-45.35 -11.29,-92.17l0 -265.27 -67.17 0 0 -60.77 67.17 0 0 -114.27 91.12 -46.82 0 161.09 91.98 0 0 60.77 -91.98 0 0 269.56c0,22.38 1.56,36.61 4.7,42.98 3.29,6.37 8.49,11.41 15.79,15.27 7.27,3.7 17.69,5.62 31.23,5.62 10.25,0 23.61,-1.03 40.26,-3.11zm-5476.62 809.15l93.03 -6.96c4.33,31.85 14.58,57.93 30.73,78.39 16.13,20.45 41.12,36.9 74.97,49.49 33.83,12.6 72.03,18.82 114.37,18.82 37.66,0 70.81,-4.74 99.62,-14.22 28.81,-9.64 50.34,-22.67 64.39,-39.28 14.07,-16.74 21.18,-34.81 21.18,-54.53 0,-20.01 -6.78,-37.35 -20.48,-52.32 -13.54,-14.97 -35.92,-27.41 -67,-37.49 -20.13,-6.67 -64.2,-17.04 -132.77,-31.11 -68.38,-14.09 -116.45,-27.29 -143.88,-39.72 -35.58,-15.86 -62.14,-35.72 -79.67,-59.28 -17.35,-23.57 -26.03,-49.95 -26.03,-79.3 0,-32 10.59,-62.09 31.93,-89.95 21.36,-28.01 52.6,-49.2 93.56,-63.71 41.13,-14.39 86.61,-21.65 136.76,-21.65 55.37,0 103.95,7.56 146.31,22.82 42.19,15.11 74.64,37.49 97.38,66.98 22.55,29.5 34.87,62.99 36.62,100.34l-94.6 6.08c-5.21,-40.17 -22.39,-70.7 -51.73,-91.15 -29.33,-20.59 -72.53,-30.82 -129.82,-30.82 -59.69,0 -103.08,9.33 -130.51,28.01 -27.25,18.67 -40.96,41.2 -40.96,67.43 0,22.97 9.72,41.79 28.99,56.46 19.08,14.82 68.55,29.94 148.74,45.35 80.18,15.55 135.2,29.04 165.05,40.6 43.39,17.2 75.5,38.83 96.15,64.92 20.66,26.23 30.89,56.46 30.89,90.54 0,33.94 -11.28,65.8 -34.01,95.74 -22.74,29.94 -55.38,53.2 -97.89,69.95 -42.51,16.59 -90.42,24.9 -143.54,24.9 -67.5,0 -124.09,-8.31 -169.57,-25.2 -45.64,-16.75 -81.39,-41.93 -107.43,-75.73 -25.86,-33.65 -39.56,-71.87 -40.78,-114.4zm976.2 381.16l0 -637.69 83.3 0 0 59.87c19.62,-23.41 41.82,-41.06 66.64,-52.76 24.65,-11.71 54.67,-17.64 89.91,-17.64 46.17,0 86.77,10.23 122,30.38 35.42,20.31 61.97,48.91 79.84,85.81 18.05,36.9 27.09,77.35 27.09,121.37 0,47.13 -9.9,89.66 -29.87,127.46 -19.77,37.78 -48.59,66.68 -86.42,86.84 -37.84,20 -77.58,30.08 -119.23,30.08 -30.55,0 -57.81,-5.48 -82.1,-16.45 -24.31,-10.96 -44.09,-24.89 -59.7,-41.64l0 224.37 -91.46 0zm82.79 -404.58c0,59.28 14.04,103.14 42.16,131.6 28.11,28.3 62.32,42.53 102.22,42.53 40.62,0 75.5,-14.67 104.49,-44.17 28.98,-29.34 43.56,-74.83 43.56,-136.47 0,-58.84 -14.23,-102.71 -42.52,-132.05 -28.29,-29.19 -62.13,-43.88 -101.36,-43.88 -39.04,0 -73.59,15.57 -103.61,46.69 -30.03,31.13 -44.94,76.48 -44.94,135.75zm1108.43 171.02c-34.03,24.6 -66.65,41.94 -97.89,52.17 -31.42,10.07 -65.09,15.11 -101.01,15.11 -59.36,0 -104.84,-12.29 -136.77,-37.05 -31.75,-24.74 -47.73,-56.46 -47.73,-94.85 0,-22.67 5.91,-43.27 18.05,-61.94 11.98,-18.67 27.76,-33.64 47.2,-44.9 19.62,-11.27 41.49,-19.86 65.95,-25.64 17.88,-4 44.96,-8 81.23,-11.71 73.95,-7.56 128.43,-16.46 163.33,-26.97 0.35,-10.67 0.52,-17.48 0.52,-20.31 0,-31.86 -8.67,-54.39 -26.04,-67.28 -23.26,-17.78 -58.14,-26.53 -104.13,-26.53 -43.04,0 -74.8,6.37 -95.46,19.27 -20.47,12.9 -35.57,35.71 -45.47,68.46l-89.39 -10.51c8.16,-32.61 21.52,-59.13 40.09,-79.14 18.57,-20.15 45.65,-35.72 80.89,-46.54 35.22,-10.82 76.01,-16.3 122.53,-16.3 46.17,0 83.47,4.74 112.29,13.93 28.82,9.34 49.99,20.9 63.7,34.97 13.54,14.09 22.92,31.72 28.47,53.22 2.94,13.33 4.5,37.34 4.5,72.02l0 104.18c0,72.76 1.92,118.71 5.91,137.81 3.82,19.28 11.62,37.8 23.08,55.44l-95.64 0c-9.37,-16.16 -15.61,-35.12 -18.21,-56.91zm-7.64 -174.57c-33.33,11.7 -83.14,21.48 -149.44,29.63 -37.66,4.59 -64.39,9.79 -79.84,15.56 -15.61,5.78 -27.76,14.23 -36.11,25.49 -8.5,11.12 -12.83,23.41 -12.83,37.04 0,20.91 9.38,38.25 27.77,52.18 18.39,13.78 45.47,20.75 81.06,20.75 35.23,0 66.63,-6.53 94.07,-19.71 27.42,-13.19 47.72,-31.28 60.57,-54.1 9.89,-17.63 14.75,-43.71 14.75,-78.1l0 -28.74z"/>
  </g>
  <polygon class="fil0" points="-22801.44,9584.48 -22573.44,10290.83 -21831.2,10289.4 -22432.52,10724.52 -22201.8,11429.99 -22801.44,10992.56 -23401.09,11429.99 -23170.36,10724.52 -23771.68,10289.4 -23029.45,10290.83 "/>
  <polygon class="fil0" points="-19867.05,9584.48 -19639.04,10290.83 -18896.81,10289.4 -19498.13,10724.52 -19267.4,11429.99 -19867.05,10992.56 -20466.69,11429.99 -20235.97,10724.52 -20837.29,10289.4 -20095.05,10290.83 "/>
  <polygon class="fil0" points="-16928.91,9584.48 -16700.91,10290.83 -15958.67,10289.4 -16559.99,10724.52 -16329.27,11429.99 -16928.91,10992.56 -17528.56,11429.99 -17297.83,10724.52 -17899.15,10289.4 -17156.92,10290.83 "/>
  <polygon class="fil0" points="-13994.52,9584.48 -13766.51,10290.83 -13024.28,10289.4 -13625.6,10724.52 -13394.87,11429.99 -13994.52,10992.56 -14594.16,11429.99 -14363.44,10724.52 -14964.76,10289.4 -14222.52,10290.83 "/>
 </g>
</svg>
